<svg viewBox="0 0 415 347" fill="none" xmlns="http://www.w3.org/2000/svg">
  <path d="M324.19 334.82h-19.15l-1.4 4.6H91.23l-1.4-4.6H71.04a5.73 5.73 0 0 0-5.76 5.67c0 3.12 2.6 5.67 5.76 5.67H324.2a5.73 5.73 0 0 0 5.76-5.67c0-3.12-2.6-5.67-5.76-5.67Z" fill="#004E60"/>
  <path d="m303.65 339.41 1.4-4.6 18.5-61H74.2l15.62 61 1.4 4.6h212.43Z" fill="#2EAFC0"/>
  <path d="M261.7 191.08c.34-.08.69-.15 1.03-.2l.14-.03.13-.02a21.37 21.37 0 0 1 8.77.52l.16.03c1.68.42 3.44.98 5.33 1.66.02-1.34.1-2.7.27-4.06 1.17-10.02 5.71-16.17 11.06-19.93a31.85 31.85 0 0 0-4.32-7.71c-5.06-6.7-12.1-11.64-18.62-17-6.51-5.36-12.8-11.56-15.46-19.5-4.32-12.94 3.5-28.58 16.56-33.08l-1.33-16.52A51.22 51.22 0 0 0 231 77.12a50.17 50.17 0 0 0-25 23.35c-4.86 9.64-6.3 20.33-6.45 31.2a70 70 0 0 1 20.12-1.79c22.55 1.08 43.65 10.03 39.65 43.7-.3 2.58-.7 5.41-1.18 8.42-.45 3.38-1.03 7.1-1.7 11.05a22.75 22.75 0 0 1 5.24-1.96v-.01Z" fill="#BBF6E2"/>
  <path d="m346.37 95.82.02.14-.02-.27v.13Z" fill="#112231"/>
  <path d="M399.4 43.5c-.28-2.1-.55-4.21-.84-6.3-1.04-7.4-2.52-14.92-6.4-21.33-3.26-5.39-8.52-9.9-14.6-11.35l-1.51-.3a17.9 17.9 0 0 0-2.07-.19c-8.23-.26-15.42 5.07-21.81 10.18l-4.54 6.59.75-1.1 9.13 6.54 6.51-9.45c2.6-3.78 7.57-5.64 12.34-4.64 5.1 1.07 8.66 5.14 9.8 11.16l3.43 36.1 11.87 5.74-2.05-21.65Zm-2.04-21.69v.14-.14l-.04-.23.04.23Z" fill="#FF4F40"/>
  <path d="m347.63 20.8-.53.77 8.37 7.63 2.04-2.96-9.13-6.54-.75 1.1Zm53.87 44.78-.04-.43-11.87-5.75.11 1.21 12.4 11.3-.6-6.33Z" fill="#112231"/>
  <path d="M373.98 4.03a17.88 17.88 0 0 1 3.57.49c6.1 1.45 11.35 5.97 14.61 11.35 3.88 6.41 5.35 13.93 6.4 21.33.3 2.09.56 4.2.85 6.3l-2.04-21.46v-.1l-.01-.13-.05-.23c-1.92-10.66-8.87-18.25-18.6-20.3-9.2-1.93-18.86 1.8-24.01 9.27l-2.53 3.66c6.4-5.11 13.58-10.45 21.8-10.18Z" fill="#FFA9DF"/>
  <path d="m383.29 131.55.07-.05-.07.05Zm.07-.05Z" fill="#FF4F40"/>
  <path d="M413.17 81.64c-.94-1.37-3.9-3.17-3.9-3.17L344.11 18.8c.83 2.4-1.18 6.26-5.16 10.6l51.04 52.81c4.65 4.81 9.49 9.97 10.91 16.45 1.91 8.73-2.88 17.55-8.77 24.33a71.56 71.56 0 0 1-6.37 6.45l-.12.11a81.14 81.14 0 0 1-2.35 2 92.12 92.12 0 0 0 12.23-9.79c15.77-15.04 22.78-32.7 17.66-40.11Z" fill="#FFA9DF"/>
  <path d="M323.78 41.66c6.27-3.98 11.54-8.32 15.17-12.27 3.98-4.34 5.99-8.2 5.15-10.6a3.09 3.09 0 0 0-.3-.65c-2.76-4.22-16.2-.54-30.02 8.23-13.82 8.76-22.78 19.29-20.02 23.5.14.2.3.38.48.55 3.58 3.3 16.38-.42 29.54-8.77Z" fill="#004E60"/>
  <path d="M385.76 129.43a71.77 71.77 0 0 0 6.36-6.44c5.9-6.79 10.69-15.6 8.77-24.33-1.42-6.5-6.26-11.64-10.9-16.45l-51.05-52.82c-3.63 3.95-8.9 8.3-15.16 12.27-13.16 8.35-25.96 12.07-29.55 8.77l9 25.78-.94-2.71 28.8 7.99.62.06s1.47.12 4.28 2.5c2.82 2.37 3.22 3.95 3.22 3.95l-66.8-9.06c.53 1.66.67 3.67.28 5.75-.9 4.83-4.26 8.26-7.53 7.7l49.21 15.71 10.02 28.7c.2 1.27.64 2.41 1.34 3.42 6.3 9.12 33.4 7.52 57.54-8.65l.02-.01.45-.38c.63-.53 1.27-1.07 1.89-1.62l.13-.12v-.01Z" fill="#FF4F40"/>
  <path d="M272.7 84.68c.38-2.08.25-4.08-.3-5.75-.62-1.94-1.8-3.4-3.35-3.98a4.33 4.33 0 0 0-.67-.19c-3.29-.61-6.69 2.83-7.6 7.7-.9 4.86 1.03 9.3 4.32 9.92h.06c3.27.56 6.63-2.87 7.53-7.7Z" fill="#004E60"/>
  <path d="m331.1 81.48-28.8-7.99.94 2.72.85 2.43 27.01 2.84Z" fill="#112231"/>
  <path d="M272.4 78.93 339.22 88s-.4-1.58-3.21-3.95c-2.82-2.38-4.29-2.5-4.29-2.5l-.61-.06-27.01-2.84-35.04-3.69c1.55.57 2.73 2.04 3.35 3.98Z" fill="#FFA9DF"/>
  <path d="m330.55 247.34-.75-1.77c-.47-1.07-.95-2.1-1.44-3.1-9.05-18.33-21.21-23.66-30.63-23.17a21.2 21.2 0 0 0-5.52 1.03c-7.17 2.37-31.88 18.14-48.78 33.68 7.16 2.28 14.28 7.21 14.32 17.8a196.37 196.37 0 0 1 46.9-23.61c.73-.26 1.04.89.31 1.14a196.68 196.68 0 0 0-47.25 23.94 33.28 33.28 0 0 1-1.48 8.01l55.88-4.14 15.14-1.11a21.45 21.45 0 0 0 6.28-15.47c-.01-3.88-.92-8.27-2.97-13.24Z" fill="#C3FF34"/>
  <path d="M336.08 182.18c-13.46-18.27-25.82-18.99-25.82-18.99s-29.47-2.15-32.74 25.8a39.55 39.55 0 0 0-.27 4.05c1.9.69 3.9 1.5 6.09 2.4 1.4.56 2.68 1.23 3.88 1.97l.07.04a22.29 22.29 0 0 1 7.57 7.72c2.39 4.13 3.37 9 2.87 14.14 9.41-.5 21.58 4.84 30.62 23.17 1.21-.37 2.43-.7 3.65-1l.24-.06c14.62-8.79 15.36-43.6 3.83-59.24h.01Zm-116.4-52.3c-11.8-.56-24.2 1.33-33.49 7.47l-.11.08.11-.08c7.5 1.25 12.94 9.45 13.08 17.23.16 8.58-4.24 16.53-8.5 24.02a34.5 34.5 0 0 1 22.33 21.64 33.8 33.8 0 0 1-4.72 30.15 18.06 18.06 0 0 1 5.34-1.63 18.3 18.3 0 0 1 9.66 1.37 56.95 56.95 0 0 1 9.95-28A58.09 58.09 0 0 1 258.15 182c.47-3.01.87-5.84 1.18-8.42 4-33.68-17.1-42.63-39.65-43.7ZM65.23 183.06c5.69 0 10.42 4 11.45 9.31.72-.13 1.46-.2 2.22-.2a11.57 11.57 0 0 1 11.65 12l12.92 10.36c2-2 4.52-3.5 7.34-4.3a16.37 16.37 0 0 1-.55-4.21c0-7.46 4.98-13.76 11.84-15.88l.04.04c-.02 0-.03-.03-.04-.04-9.2-10.74-20.83-19-34.45-19.43-10.55-.32-19 4.94-24.66 12.56.73-.14 1.48-.21 2.25-.21Z" fill="#61763D"/>
  <path d="M65.23 206.01c.76 0 1.5-.07 2.22-.2a11.61 11.61 0 0 0 11.45 9.31c5.69 0 10.56-4.13 11.5-9.56-4.31-3.44-8.6-6.9-12.9-10.34-.61-.49.25-1.32.84-.84l11.44 9.17.76.61.02-.52a11.57 11.57 0 0 0-13.88-11.27 11.61 11.61 0 0 0-13.7-9.1 41.26 41.26 0 0 0-7.4 17.68v.02a11.7 11.7 0 0 0 9.65 5.04Z" fill="#3A4920"/>
  <path d="M343.67 238.7a79.9 79.9 0 0 0-4.37 1.22 75.09 75.09 0 0 1-9.5 5.66l.75 1.76c5.43 13.16 2.88 22.26-3.3 28.7a32.69 32.69 0 0 1-5.91 4.77c5.27-.4 52.07-4.34 55.94-19.44 4.11-16-9.85-28.54-33.61-22.67Zm-22.82 42.14h.16-.18.02Z" fill="#61763D"/>
  <path d="M106.36 243.84a82.07 82.07 0 0 0-50.65-29.62l.28 1.26v.01c.74 2.97 2.55 6.64 5.07 10.73 17.6 2.28 36.1 7.46 45.3 17.63Zm5.78 8.22-.03-.06.03.05Z" fill="#112231"/>
  <path d="M108.6 195.87c4.32 0 7.82-3.3 7.82-7.35s-3.5-7.34-7.82-7.34c-4.31 0-7.81 3.29-7.81 7.34 0 4.06 3.5 7.35 7.81 7.35Z" fill="#C3FF34"/>
  <path d="M314.98 209.25c1.42-.5 1.77-3.16.77-5.96s-2.97-4.67-4.39-4.17c-1.42.49-1.76 3.16-.76 5.96s2.96 4.66 4.38 4.17Z" fill="#A3DC1A"/>
  <path d="M256.45 193.05c.67-3.95 1.25-7.67 1.7-11.05a58.06 58.06 0 0 0-24.81 20.13 56.95 56.95 0 0 0-9.97 28.16c4.85-9.22 10.27-17.7 15.96-23.4 7-7.03 12.37-11.41 17.12-13.84Z" fill="#112231"/>
  <path d="M343.49 219.57c1.79-13.07-.78-28.4-7.4-37.4-13.47-18.26-25.83-18.98-25.83-18.98s-8.34-.6-16.63 3.03c14.73.13 29.3 6.95 38.63 18.18a50 50 0 0 1 11.23 35.17Z" fill="#A3DC1A"/>
  <path d="M369.08 251.2a129.8 129.8 0 0 0-35.56 9.37c0 .44 0 .87-.03 1.3a128.96 128.96 0 0 1 35.6-9.48c.75-.08.76-1.28 0-1.19Zm-29.78-11.29c-3.2.94-4.58.91-7.05 1.5l-.24.06c-1.22.3-2.44.64-3.65 1 .49 1 .97 2.03 1.44 3.1a75.36 75.36 0 0 0 9.5-5.66Z" fill="#112231"/>
  <path d="M330.55 247.34c-10.97-26.6-28-30.42-38.35-27-.85.27-1.96.75-3.28 1.4 13.3.17 26.3 7.2 33.58 18.15a40.35 40.35 0 0 1 3.97 36.2l.77-.05c6.2-6.44 8.75-15.54 3.31-28.7Z" fill="#D9FF6F"/>
  <path d="M110.23 248.97a57.41 57.41 0 0 0-2.57-3.59c-.4-.53-.84-1.03-1.3-1.53-9.2-10.17-27.7-15.34-45.3-17.63-18.9-2.45-36.75-1.58-40.92.03C11.9 229.44-2.4 236.6.61 263.2c3 26.6 23.72 24.43 43.68 23.11 7.08-.47 14.22-1.43 20.74-2.26a36.99 36.99 0 0 1 18.35-29.74 29.48 29.48 0 0 1 26.85-5.34Zm-38.89 31.78Zm.04.85-.01-.25v.26Z" fill="#A3DC1A"/>
  <path d="M112.57 249.77a27.6 27.6 0 0 1-1.14-7.43 16.68 16.68 0 0 1-12.83-16.13c0-4.13 1.53-7.9 4.05-10.8l-4.86-3.9-7.4-5.94a11.6 11.6 0 0 1-11.5 9.55 11.55 11.55 0 0 1-11.44-9.31 11.7 11.7 0 0 1-11.88-4.84v-.02.02c-.82 4.96-.72 9.95.42 14.52-.1-.42-.2-.84-.28-1.26a82.08 82.08 0 0 1 50.65 29.62c.46.5.9 1 1.3 1.53a59.1 59.1 0 0 1 2.58 3.59 32 32 0 0 1 2.33.8Z" fill="#61763D"/>
  <path d="M116.85 225.26a28.42 28.42 0 0 1 8-7.37l.1-.07a28.2 28.2 0 0 1 12.41-4.02c-3.86-7.88-8.98-16.31-15.23-23.61a.23.23 0 0 1-.03-.04 16.66 16.66 0 0 0-11.3 20.09c-2.81.8-5.33 2.3-7.33 4.3l6.53 5.24 6.85 5.49Zm-.69.98-13.5-10.84a16.4 16.4 0 0 0-4.06 10.8c0 7.8 5.46 14.35 12.83 16.14l-.01-.52a27.9 27.9 0 0 1 4.74-15.58Z" fill="#3A4920"/>
  <path d="m116.84 225.26-6.84-5.5-6.53-5.23-12.93-10.37-.77-.61-11.43-9.17c-.6-.48-1.45.35-.85.84l12.9 10.34 7.4 5.94 4.86 3.9 13.5 10.84c.22-.33.45-.66.69-.98Z" fill="#112231"/>
  <path d="m159.7 221.93.37-.41c.5-.57 1.07-1.15 1.68-1.73-3.42-14.54-10.34-38.65-15.6-56.87a57.5 57.5 0 0 1-4.1 1.6c4.52 17.05 10.3 39.37 13.6 54.07 1.46 1 2.82 2.11 4.06 3.34Z" fill="#004E60"/>
  <path d="M169.13 128.8c-4.54-10.25-23.5-12-42.33-3.91-18.84 8.08-30.43 22.95-25.9 33.2 2.7 6.08 10.47 9.17 20.28 8.98a84.52 84.52 0 0 0 31.13-12.43c8.04-5.35 19.38-15.23 16.82-25.84Zm-33.31 17.6c-1.9.9-3.98.53-4.62-.82-.64-1.34.38-3.14 2.29-4.03 1.9-.89 3.97-.52 4.62.82.64 1.34-.39 3.15-2.3 4.04Z" fill="#A3DC1A"/>
  <path d="M150.97 160.57c6.5-3.64 12.5-8.5 16.45-14.81 3.08-4.92 5.08-11.7 1.7-16.96 2.57 10.61-8.77 20.48-16.8 25.84a84.58 84.58 0 0 1-31.14 12.43c.72.11 1.45.18 2.18.24 6.35.4 12.7-.7 18.68-2.79a58.45 58.45 0 0 0 8.93-3.95Zm-15.15-14.16c1.9-.88 2.93-2.69 2.28-4.03-.64-1.34-2.7-1.71-4.62-.82-1.9.88-2.93 2.69-2.28 4.03.64 1.34 2.7 1.71 4.62.82Z" fill="#C3FF34"/>
  <path d="M193.67 209.5c14.76 3 10.69 23.55 10.69 23.55s1.46-1.43 4.02-2.67c2.8-3.84 4.72-8.3 5.67-12.94.25-2.13.48-4.28.7-6.42.05-3.65-.49-7.3-1.65-10.78a34.5 34.5 0 0 0-22.34-21.64c4.27-7.48 8.66-15.44 8.5-24.02-.14-7.78-5.57-15.98-13.07-17.23l-.12.08c-8.4 5.6-14.26 14.7-14.78 28.63-.37 10.1 2.1 26.9 5.5 44.6a32.35 32.35 0 0 1 16.87-1.16Zm21.37-45.8c-.9 3.65-1.12 7.93 1.41 10.7-.03-4.86-.17-9.72-.4-14.58a91.22 91.22 0 0 0-1 3.89Zm2.63 11.75c2.93 1.94 7.27 1.5 10.25-.54 3.4-2.35 5.34-6.24 6.67-10.12 1.07-3.13 1.84-6.43 1.48-9.71-.35-3.29-1.98-6.56-4.84-8.29-2.86-1.72-6.98-1.5-9.2.97l-.02.07a27.3 27.3 0 0 0-4.93 8.72 344 344 0 0 1 .6 18.9Z" fill="#3A4920"/>
  <path d="M214 217.97a368 368 0 0 1-1.52 11c.4-.08.82-.15 1.25-.21a345.72 345.72 0 0 0 3.12-75.79c-.05-.76-1.25-.76-1.2 0a347.35 347.35 0 0 1-1.6 64.47l-.06.53Z" fill="#112231"/>
  <path d="M266.78 267.37a197.4 197.4 0 0 1 38.18-18.03c.73-.25.41-1.4-.32-1.14a197.23 197.23 0 0 0-46.9 23.6c0 .49-.01.98-.04 1.48 2.97-2.05 6-4.02 9.08-5.91Z" fill="#61763D"/>
  <path d="m252.7 195.29.22-.16-.22.16Zm-9.83 8.14Zm19.86-12.55.14-.03c-.05 0-.1.02-.14.03Zm-22.5 45.92a417.78 417.78 0 0 1-6.1 15.44c1.35.11 2.87.3 4.47.58.8-1.56 1.6-3.12 2.36-4.7a292.05 292.05 0 0 0 20.73-57.03c-1.7.39-3.43 1.03-5.24 1.95a35 35 0 0 0-3.08 1.8 421.2 421.2 0 0 1-13.14 41.97Zm-10.48-14.97c-.26 3.78-.7 7.55-1.32 11.3a10.43 10.43 0 0 1 3.5 7.05 309.25 309.25 0 0 0 10-35.85l.07-.07c-.87.83-1.76 1.7-2.68 2.63-3.66 3.67-7.21 8.5-10.57 13.94l1.16-1.84c-.04.94-.1 1.9-.16 2.84Zm-2.4 10.42c.58-3.7 1-7.42 1.24-11.16a156.02 156.02 0 0 0-5.15 9.06 24.05 24.05 0 0 1 3.9 2.1Zm-14.55 49.29h.37c.18-.86.35-1.37.35-1.37s-.23.54-.73 1.37Z" fill="#A3DC1A"/>
  <path d="M294.86 205.17a126.11 126.11 0 0 0-22.2 18.86 187.41 187.41 0 0 0-4.72 3.47c.73-.85 1.46-1.7 2.21-2.52a129.82 129.82 0 0 1 24.09-20.82 22.43 22.43 0 0 0-6.96-6.72 160.87 160.87 0 0 0-9.82 10.77 200.4 200.4 0 0 0-10.55 13.87 281.63 281.63 0 0 0-8.72 13.35c-1 .88-2.02 1.76-3.03 2.67.81-1.34 1.63-2.69 2.46-4.02 3.06-4.95 6.25-9.82 9.64-14.56a197.5 197.5 0 0 1 10.67-13.72c2.65-3.1 5.41-6.1 8.3-8.98a24.84 24.84 0 0 1-2.9-1.4c-2.18-.89-4.2-1.7-6.08-2.38a51.43 51.43 0 0 0-5.33-1.66 599.9 599.9 0 0 1-24.66 54 419 419 0 0 0-2.71 2.6 602.03 602.03 0 0 0 26.18-56.87c-2.68-.55-5.2-.69-7.74-.28a292.74 292.74 0 0 1-15.28 45.43 291.27 291.27 0 0 1-7.41 15.87l-.85.85c1.3.26 2.64.6 3.97 1.02 16.9-15.53 41.6-31.3 48.78-33.68 1.68-.55 3.54-.91 5.52-1.02.5-5.14-.47-10.01-2.86-14.14Zm-60.26 30.86a320.3 320.3 0 0 1-2.92 8.46 25.2 25.2 0 0 1-2.8 7.48l-.06.13a41 41 0 0 1 4.06.05l1.28-3.08a420.9 420.9 0 0 0 17.7-53.2 80.8 80.8 0 0 0-8.4 7 308.56 308.56 0 0 1-8.86 33.16Zm36.27-44.89Zm23.38 13.04Z" fill="#A3DC1A"/>
  <path d="M240.96 248.12a294.6 294.6 0 0 1-2.36 4.7c.29.05.57.1.85.17l.85-.85a293.14 293.14 0 0 0 22.7-61.3l-.14.01-.13.03c-.35.05-.7.12-1.05.2a292.11 292.11 0 0 1-20.72 57.04Zm3.59-.13a333 333 0 0 1 2.71-2.6 600.8 600.8 0 0 0 24.66-54l-.16-.04-.89-.2c-.04-.01-.09-.03-.14-.03a598.04 598.04 0 0 1-26.18 56.87Zm33.38-42.19c-3.77 4.41-7.3 9-10.67 13.72a273.52 273.52 0 0 0-12.1 18.59c1.02-.91 2.03-1.8 3.04-2.67 2.79-4.53 5.68-9 8.72-13.35 3.31-4.77 6.81-9.41 10.54-13.88 3.11-3.73 6.38-7.33 9.83-10.76l-.07-.04-1-.59a158.89 158.89 0 0 0-8.29 8.98Zm-7.77 19.18c-.75.83-1.49 1.67-2.22 2.52 1.63-1.24 3.2-2.39 4.72-3.47a129.05 129.05 0 0 1 22.2-18.86v-.01c-.19-.33-.4-.66-.6-.98l-.01-.03a128 128 0 0 0-24.09 20.83Zm-36 24.09a530.1 530.1 0 0 1-1.28 3.08c.4.02.82.05 1.25.1a420.84 420.84 0 0 0 19.24-57.4v-.02l-.46.3a43.94 43.94 0 0 0-1.05.73 419.8 419.8 0 0 1-17.7 53.21Zm3.5-27.34a308.84 308.84 0 0 1-5.73 18.45 15.8 15.8 0 0 1-.25 4.31 307.24 307.24 0 0 0 11.79-41.63l-.14.14-.46.43-.87.83-.07.07a308.98 308.98 0 0 1-4.27 17.4Zm-8.86 30.37h.02l.05-.14-.08.14Zm-.37-18.98a119.9 119.9 0 0 0 1.48-14.13c-.4.6-.78 1.22-1.16 1.84l-.17.25v.01a119.6 119.6 0 0 1-1.23 11.16c.39.28.75.57 1.08.87Z" fill="#3A4920"/>
  <path d="m327.24 276.03-.77.06-70.25 5.2-.02.08 64.63-.54h.48l.03-.03a32.46 32.46 0 0 0 5.9-4.77ZM243.43 254c16.9-15.53 41.6-31.3 48.77-33.67 1.69-.56 3.55-.92 5.53-1.03.3-3.1.07-6.12-.7-8.93-4.5 1.67-12.86 5.47-24.37 13.66a187.41 187.41 0 0 0-14.46 11.4c-1.01.88-2.02 1.76-3.04 2.67a349.15 349.15 0 0 0-10.6 9.88 456.42 456.42 0 0 0-4.26 4.16l-.85.85c1.3.26 2.64.59 3.98 1.02Z" fill="#112231"/>
  <path d="M228.8 252.1s8.65-14.04-2.55-20.55c-12.78-7.44-21.9 1.5-21.9 1.5s4.08-20.55-10.68-23.56c-14.77-3-27.68 5.44-33.6 12.03l-.36.41a27.95 27.95 0 0 1 6.07 30.8 28.3 28.3 0 0 1-27.7 17.17 28.27 28.27 0 0 1-25.51-20.13 29.14 29.14 0 0 0-10.69-2.03 29.49 29.49 0 0 0-18.5 6.56 32.63 32.63 0 0 0-12.05 25.55c0 1.28.08 2.53.22 3.77 1.77 15.95 14.67 28.34 30.33 28.34 11.15 0 20.9-6.27 26.23-15.65a23.3 23.3 0 0 0 18.98 9.59c12.74 0 23.06-9.95 23.06-22.22 0-1.03-.07-2.03-.21-3.02 6.31-.45 10.16-5.06 10.16-5.06s-2.8 9.9 10.46 13.86c16.86 5.03 22.96-9.29 22.96-9.29s-3.27 9.68 3.98 16.9c7.38 7.32 32.17 11.17 39.3-17.9 7.12-29.07-28-27.07-28-27.07Z" fill="#FFA9DF"/>
  <path d="M139.7 225.2a27.85 27.85 0 0 1 7.87 25.3 26.58 26.58 0 0 1 18.2 2.23 27.97 27.97 0 0 0-6.06-30.8 28.28 28.28 0 0 0-20-8.23 28.3 28.3 0 0 0-14.77 4.12l-.1.07.1-.07a28.52 28.52 0 0 1 14.76 7.39Z" fill="#FFA9DF"/>
  <path d="M138.07 269.9a28.3 28.3 0 0 0 27.7-17.17 26.6 26.6 0 0 0-18.2-2.23 27.9 27.9 0 0 0-7.88-25.3c-4-3.85-9.24-6.4-14.75-7.38l-.1.07a28.08 28.08 0 0 0-12.28 31.88 28.27 28.27 0 0 0 25.5 20.14h.01Z" fill="#F365BF"/>
  <path d="M169.78 191.57a7.95 7.95 0 0 0 7.89-8.01 7.96 7.96 0 0 0-7.9-8.02 7.96 7.96 0 0 0-7.89 8.02 7.96 7.96 0 0 0 7.9 8.01ZM184 310.75c5.34 0 9.67-4.6 9.67-10.28 0-5.67-4.33-10.27-9.67-10.27-5.35 0-9.68 4.6-9.68 10.27 0 5.68 4.33 10.28 9.68 10.28Z" fill="#FFA9DF"/>
  <path d="M83.38 254.3a37 37 0 0 0-18.35 29.75c2.24-.29 4.41-.55 6.48-.77a32.65 32.65 0 0 1 11.87-28.98Z" fill="#112231"/>
  <path d="M228.8 252.1s8.65-14.04-2.55-20.55c-12.78-7.44-21.89 1.5-21.89 1.5s4.07-20.55-10.69-23.56c-9.2-1.87-17.68.7-24.2 4.5a24.77 24.77 0 0 0-2.32 6.06 29.67 29.67 0 0 1 4.09 20.48c6.95 8.86 20.62 11.93 30.75 6.76a20.82 20.82 0 0 0 6.5 21.42 21.6 21.6 0 0 0 22.51 2.87c.8 10.31 6.69 19.87 15.06 26.06 4.59-3.56 8.52-9.42 10.74-18.47 7.13-29.08-28-27.07-28-27.07Z" fill="#FFD7F0"/>
  <path d="M167.14 220.06a28.76 28.76 0 0 0-2.16-3.05 37.28 37.28 0 0 0-5.27 4.92 27.96 27.96 0 0 1 5.74 31.54 29.46 29.46 0 0 0 5.77-12.92v-.03a29.65 29.65 0 0 0-4.09-20.47h.01Z" fill="#112231"/>
  <path d="M156.41 290.44a35.48 35.48 0 0 0-24.36-11.92c-11.51-4.22-25.16-2.69-35.23 4.31-1.58-7.86-8.6-14.38-16.68-15.45a19.2 19.2 0 0 0-6.53.29 33.44 33.44 0 0 0-2.29 12.18c0 17.73 13.68 32.11 30.56 32.11 11.14 0 20.9-6.28 26.23-15.65a23.3 23.3 0 0 0 18.97 9.59c5.85 0 11.19-2.1 15.26-5.56a33.71 33.71 0 0 0-5.93-9.9Z" fill="#F365BF"/>
  <path d="M112.56 249.78a28.7 28.7 0 0 0-6.59-1.74c-.4 7.83 5.17 15.22 12.32 18.76 6.05 3 12.98 3.64 19.78 3.1a28.27 28.27 0 0 1-25.5-20.12Zm58.5 22.06c-6.03-5.14-12.24-4.88-12.24-4.88 5.46 2.7 9.46 7.9 11.02 13.7 2.38-.15 4.42-.89 6.03-1.76-1.14-2.65-2.7-5.26-4.81-7.06Z" fill="#112231"/>
</svg>